# xmcd
#
# Track frame offsets:
#	150
#	38835
#	71559
#	102110
#	149802
#	216447
#	244985
#	289851
#
# Disc length: 4283 seconds
#
# Revision: 1
# Processed by: cddbd v1.5.2PL0 Copyright (c) Steve Scherf et al.
# Submitted via: audiograbber 1.83.01
#
DISCID=8310b908
DTITLE=Grateful Dead - 81-12-31 Oakland Auditorium Arena, Oakland CA
DYEAR=1900
DGENRE=
TTITLE0=The Other One
TTITLE1=Not Fade Away
TTITLE2=GDTRFB
TTITLE3=Morning Dew
TTITLE4=Dark Star
TTITLE5=Bertha
TTITLE6=Good Lovin
TTITLE7=It's All Over Now Baby Blue
EXTD=
EXTT0=
EXTT1=
EXTT2=
EXTT3=
EXTT4=
EXTT5=
EXTT6=
EXTT7=
PLAYORDER=
